<svg xmlns="http://www.w3.org/2000/svg" width="135" height="57" viewBox="50 47 135 57"><path fill="#E31838" d="M53.696 63.939l-3 1.684a1.363 1.363 0 0 0-.556 1.789l17.385 35.328c.166.336.462.59.819.699.359.11.746.068 1.072-.114l3.347-1.887c13.747-7.754 30.054-12.2 44.737-12.2s30.99 4.447 44.738 12.201l3.346 1.886a1.364 1.364 0 0 0 1.891-.585l17.384-35.328a1.362 1.362 0 0 0-.554-1.789l-3.002-1.685C161.289 52.699 139.82 47 117.5 47c-22.319 0-43.786 5.699-63.804 16.939z"/><path fill="#BA102C" d="M117.499 84.244c-15.517 0-32.716 4.681-47.19 12.844l-1.965 6.352a1.37 1.37 0 0 0 1.072-.115l3.346-1.887c13.748-7.753 30.055-12.2 44.737-12.2 14.685 0 30.989 4.447 44.737 12.202l3.349 1.885a1.35 1.35 0 0 0 1.069.115l-1.963-6.352c-14.474-8.163-31.673-12.844-47.192-12.844z"/><path fill="#CE1432" d="M56.14 68.295l-6.079-1.887c-.1.32-.081.68.079 1.004l17.384 35.328c.166.336.462.59.819.699l1.966-6.352L56.14 68.295zm108.551 28.793l1.963 6.352c.359-.11.654-.362.82-.699l17.385-35.328c.158-.324.179-.684.078-1.004l-6.078 1.885-14.168 28.794z"/><path fill="#EF404A" d="M117.499 51.994c21.455 0 42.099 5.484 61.36 16.299l6.076-1.893a1.35 1.35 0 0 0-.631-.777l-3.002-1.685C161.288 52.699 139.82 47 117.499 47c-22.319 0-43.786 5.699-63.803 16.939l-3 1.684a1.362 1.362 0 0 0-.632.778l6.077 1.894c19.261-10.816 39.905-16.301 61.358-16.301z"/><path fill="#FFF" d="M150.1 62.746a.507.507 0 0 0-.127.441l2.438 13.792-2.489 6.57a.42.42 0 0 0 .002.363c.05.102.156.184.271.225 1.849.654 3.798 1.387 5.215 1.957a.453.453 0 0 0 .59-.248l2.622-6.424 11.224-8.453a.499.499 0 0 0 .18-.407.438.438 0 0 0-.254-.364c-1.754-.852-3.617-1.741-5.356-2.487a.455.455 0 0 0-.485.084s-5.632 5.178-6.767 6.219c-.116-1.533-.701-9.143-.701-9.143a.456.456 0 0 0-.306-.395 186.494 186.494 0 0 0-5.602-1.803c-.155-.044-.355-.02-.455.073zm-25.709-4.203l-1.619 19.5a.455.455 0 0 0 .421.491c.826.053 3.024.213 5.6.539a.453.453 0 0 0 .508-.407l.838-8.708 4.834 9.915c.061.126.18.217.317.247 1.506.303 3.36.712 5.219 1.151a.459.459 0 0 0 .55-.342l4.375-19.185a.455.455 0 0 0-.338-.543 182.757 182.757 0 0 0-5.883-1.271.454.454 0 0 0-.533.352l-2.072 9.896-5.026-11.212a.456.456 0 0 0-.36-.266 118.052 118.052 0 0 0-6.35-.572.454.454 0 0 0-.481.415zm-7.787-.631l-3.321.063c-4.306.154-9.179.62-13.722 1.309a.453.453 0 0 0-.383.508l2.622 19.476a.455.455 0 0 0 .525.385c5.318-.86 10.591-1.334 15.484-1.309.25 0 .453-.197.457-.449l.037-3.591a.467.467 0 0 0-.13-.324.476.476 0 0 0-.319-.135c-2.686-.086-7.576.225-10.021.479-.078-.631-.355-2.891-.438-3.548 2.064-.222 7.102-.489 7.324-.485a.47.47 0 0 0 .445-.463l-.066-3.308a.452.452 0 0 0-.464-.445c-1.282-.017-5.319.246-7.741.486l-.438-3.597a124.05 124.05 0 0 1 6.991-.483l3.188-.056a.456.456 0 0 0 .447-.457l-.012-3.604a.466.466 0 0 0-.137-.323.465.465 0 0 0-.328-.129zm-25.379 2.977a123.918 123.918 0 0 0-6.529 1.708.453.453 0 0 0-.317.344l-2.128 10.331-8.064-6.796a.455.455 0 0 0-.463-.073c-2.273.924-4.385 1.84-6.271 2.727a.455.455 0 0 0-.223.595l7.861 17.809a.454.454 0 0 0 .254.244c.113.041.24.037.352-.014 1.258-.574 2.964-1.279 5.214-2.15.114-.043.212-.131.254-.246s.046-.247-.001-.355c0 0-2.458-5.768-3.346-7.847 1.863 1.306 7.127 5.001 7.127 5.001a.46.46 0 0 0 .41.059.455.455 0 0 0 .285-.299l2.498-8.331 2.305 8.285a.456.456 0 0 0 .557.317 166.42 166.42 0 0 1 5.413-1.383.452.452 0 0 0 .338-.556L91.77 61.22a.458.458 0 0 0-.545-.331z"/></svg>